<?xml version="1.0" standalone="no"?>
<!DOCTYPE svg PUBLIC "-//W3C//DTD SVG 20010904//EN"
 "http://www.w3.org/TR/2001/REC-SVG-20010904/DTD/svg10.dtd">
<svg version="1.0" xmlns="http://www.w3.org/2000/svg"
 width="1044.000000pt" height="1044.000000pt" viewBox="0 0 1044.000000 1044.000000"
 preserveAspectRatio="xMidYMid meet">
<metadata>
Created by potrace 1.14, written by Peter Selinger 2001-2017
</metadata>
<g transform="translate(0.000000,1044.000000) scale(0.100000,-0.100000)"
fill="#000000" stroke="none">
<path d="M4919 10426 c-2 -2 -58 -7 -123 -11 -66 -4 -127 -8 -135 -10 -9 -1
-47 -6 -86 -10 -38 -4 -79 -9 -90 -11 -11 -2 -42 -6 -70 -10 -77 -9 -336 -60
-475 -94 -479 -118 -978 -324 -1400 -578 -113 -68 -398 -256 -410 -271 -3 -3
-32 -26 -65 -50 -52 -39 -201 -157 -215 -171 -3 -3 -43 -38 -90 -79 -87 -77
-336 -323 -425 -421 -57 -63 -207 -246 -276 -335 -98 -128 -216 -303 -318
-472 -258 -429 -495 -1001 -587 -1413 -2 -11 -6 -29 -9 -41 -2 -11 -6 -28 -9
-37 -3 -9 -8 -32 -11 -51 -3 -19 -8 -37 -10 -41 -2 -4 -7 -22 -10 -41 -3 -19
-12 -70 -20 -114 -8 -44 -17 -98 -20 -120 -3 -22 -10 -65 -15 -95 -5 -30 -12
-84 -15 -120 -3 -36 -7 -74 -10 -85 -26 -134 -26 -822 0 -1035 2 -19 7 -60 10
-90 13 -119 51 -349 77 -465 11 -49 22 -101 24 -115 3 -14 10 -43 16 -65 5
-22 12 -47 13 -55 2 -8 18 -64 35 -125 169 -595 462 -1187 832 -1678 49 -65
97 -128 107 -140 11 -12 54 -64 97 -116 172 -207 410 -443 631 -628 65 -54
122 -101 128 -106 5 -4 33 -25 62 -47 117 -91 410 -289 518 -350 17 -9 71 -40
122 -69 420 -237 983 -446 1456 -541 223 -45 244 -48 332 -60 44 -5 100 -13
125 -16 224 -28 746 -40 975 -20 50 4 108 9 130 10 39 4 107 12 190 22 76 10
265 41 305 50 14 3 39 8 55 11 83 12 441 109 600 161 397 132 676 261 1104
512 104 61 486 330 511 359 3 3 28 24 55 45 150 119 339 298 569 539 44 46
227 269 297 362 69 91 270 386 280 410 3 9 104 183 129 225 5 8 45 87 89 175
147 296 248 554 336 860 29 102 81 309 89 355 6 35 11 59 21 102 13 52 54 329
60 403 4 44 9 88 11 99 18 99 26 701 11 886 -17 207 -53 482 -81 615 -2 11
-12 56 -21 100 -93 457 -327 1081 -539 1438 -25 43 -46 81 -46 83 0 8 -152
247 -218 344 -238 348 -578 725 -892 990 -35 30 -73 63 -85 73 -40 37 -292
225 -380 284 -557 375 -1150 631 -1790 773 -84 19 -279 55 -350 64 -22 3 -71
10 -110 15 -38 6 -104 13 -145 16 -41 4 -88 9 -105 12 -36 5 -741 14 -746 9z"/>
</g>
</svg>
